<svg width="199" height="160" viewBox="0 0 199 160" fill="none" xmlns="http://www.w3.org/2000/svg">
<path fill-rule="evenodd" clip-rule="evenodd" d="M149.233 3.88134C195.769 17.4996 208.305 76.2756 192.519 116.376C176.732 156.477 118.328 167.811 71.769 154.193C25.2105 140.574 11.5168 94.0414 27.2367 53.9185C42.9566 13.7956 102.675 -9.73693 149.233 3.88134Z" fill="#EBF5FF"/>
<path fill-rule="evenodd" clip-rule="evenodd" d="M45.1982 34.3177C43.6376 47.3177 43.1127 60.4208 43.6283 73.5037C43.8302 86.1814 45.4374 98.7977 48.4206 111.122C48.4206 112.277 48.999 113.515 49.3295 114.752C49.6223 115.948 49.8431 117.16 49.9905 118.382C50.0506 119.358 49.8248 120.33 49.3406 121.18C48.8563 122.029 48.1347 122.72 47.2638 123.167C45.3253 124.101 43.2174 124.635 41.067 124.734C38.6836 124.833 36.2972 124.639 33.9612 124.157C32.2176 123.931 30.5342 123.371 29.0037 122.507C27.1724 121.228 25.7861 119.412 25.0377 117.309C24.1585 115.109 23.4405 112.849 22.8894 110.545C21.6873 105.114 20.9137 99.5971 20.5759 94.0454C19.9975 87.5281 19.667 80.7634 19.5844 73.8337C19.333 69.6026 19.333 65.3603 19.5844 61.1292C14.2652 61.5255 8.92116 60.8234 3.88563 59.0668C-4.37689 55.0244 2.48101 47.5997 6.61227 44.0524C13.8833 37.7826 27.1859 26.6455 27.6817 26.3981C29.3097 25.6115 31.0804 25.1624 32.887 25.0781C34.7009 24.9095 36.5265 24.9095 38.3403 25.0781C40.3366 25.2124 42.242 25.9618 43.7936 27.223C44.552 28.2214 45.0727 29.3792 45.316 30.6085C45.5594 31.8378 45.5191 33.1063 45.1982 34.3177Z" fill="#7872B9"/>
</svg>
