<svg width="50" height="50" viewBox="0 0 50 50" fill="none" xmlns="http://www.w3.org/2000/svg">
<path fill-rule="evenodd" clip-rule="evenodd" d="M36.0205 3.11804C49.0925 7.04085 52.6138 23.9716 48.1794 35.5228C43.7449 47.074 27.3392 50.3387 14.261 46.4159C1.18272 42.4931 -2.66382 29.0891 1.75188 17.5315C6.16759 5.9739 22.9423 -0.804772 36.0205 3.11804Z" fill="#EBF5FF"/>
<path fill-rule="evenodd" clip-rule="evenodd" d="M35.5991 4.69208C34.8188 11.2046 34.5563 17.7688 34.8142 24.3229C34.9151 30.6739 35.7187 36.9943 37.2103 43.1684C37.2103 43.747 37.4995 44.3669 37.6647 44.9869C37.8112 45.5858 37.9215 46.1931 37.9952 46.8053C38.0253 47.2941 37.9124 47.7811 37.6703 48.2068C37.4282 48.6325 37.0674 48.9784 36.6319 49.2023C35.6627 49.6706 34.6087 49.9377 33.5335 49.9876C32.3418 50.0368 31.1486 49.9397 29.9806 49.6983C29.1088 49.5852 28.2671 49.3045 27.5018 48.8717C26.5862 48.2313 25.893 47.3211 25.5188 46.268C25.0793 45.1659 24.7203 44.0333 24.4447 42.8791C23.8436 40.1584 23.4569 37.3948 23.288 34.6135C22.9988 31.3486 22.8335 27.9597 22.7922 24.4882C22.6665 22.3685 22.6665 20.2433 22.7922 18.1237C20.1326 18.3222 17.4606 17.9705 14.9428 17.0905C10.8116 15.0654 14.2405 11.3459 16.3061 9.56878C19.9416 6.42786 26.593 0.848578 26.8408 0.724594C27.6548 0.330541 28.5402 0.105598 29.4435 0.0633473C30.3504 -0.0211158 31.2632 -0.0211158 32.1702 0.0633473C33.1683 0.130625 34.121 0.506062 34.8968 1.13788C35.276 1.63804 35.5363 2.21805 35.658 2.83389C35.7797 3.44972 35.7596 4.0852 35.5991 4.69208Z" fill="#7872B9"/>
</svg>
