<svg width="200" height="160" viewBox="0 0 200 160" fill="none" xmlns="http://www.w3.org/2000/svg">
<path fill-rule="evenodd" clip-rule="evenodd" d="M119.247 0C167.093 0 200 50.9326 200 92.1184C200 133.304 150.295 159.692 102.415 159.692C54.5339 159.692 25 120.378 25 79.0733C25 37.7686 71.3661 0 119.247 0Z" fill="#EBF5FF"/>
<path d="M88.815 118.542C88.5405 115.804 88.0553 113.524 87.3595 111.703C87.1826 111.342 87.0206 111.063 86.8733 110.866C86.783 110.636 86.6346 110.439 86.428 110.275C86.3985 110.251 86.3678 110.229 86.3359 110.206L85.8428 109.792C85.6614 109.713 85.4309 109.672 85.1515 109.667C85.1301 109.664 85.1075 109.662 85.0836 109.66C84.9169 109.648 84.692 109.669 84.409 109.721C84.3921 109.724 84.3754 109.727 84.3588 109.731C84.1098 109.78 83.8889 109.849 83.696 109.938C83.4384 110.035 83.1822 110.131 82.9272 110.225C79.103 111.644 75.5715 112.785 72.3326 113.651C68.9219 114.509 65.0746 115.111 60.7908 115.457C53.7925 116.813 48.7813 117.603 45.7571 117.828C42.7329 118.052 39.716 118.163 36.7063 118.159C33.5349 118.186 31.1501 118.095 29.5519 117.886C26.2575 117.542 24.7416 116.25 25.0039 114.009C25.3202 111.757 26.1509 109.27 27.496 106.547C27.5584 106.43 27.6222 106.313 27.6874 106.196C28.6659 104.443 29.9653 102.705 31.5856 100.981C33.0695 99.6369 34.9086 98.2553 37.1032 96.8358C38.8079 95.7883 40.89 94.6708 43.3494 93.4831C44.8339 92.7577 49.0895 91.1802 56.1161 88.7508C59.1389 87.2899 61.3778 86.1151 62.8327 85.2265C65.1988 83.8314 67.2388 82.3281 68.9528 80.7168C69.216 80.4782 69.4737 80.2379 69.7259 79.9961C71.4912 78.3032 72.9862 76.5314 74.211 74.6806C76.0952 71.8571 77.3372 68.8718 77.9368 65.7247C79.3017 58.5003 78.3085 53.1755 74.957 49.7504C71.6495 46.2608 66.9993 43.0488 61.0063 40.1143C57.0486 38.2634 52.9249 37.0336 48.6352 36.4249C44.4632 35.8506 40.1472 35.8652 35.6872 36.4687C35.4125 36.5092 35.1377 36.5517 34.863 36.5961C30.7425 37.2626 26.6289 38.3725 22.5222 39.9258C22.3118 40.0141 22.1039 40.1031 21.8983 40.1929C18.8154 41.5396 16.2776 43.0568 14.2849 44.7445C13.4671 45.4586 12.7399 46.212 12.1035 47.0048C12.0496 47.0148 12.0325 47.0742 12.0522 47.183C12.0455 47.1842 12.0388 47.1859 12.0323 47.188C11.9862 47.2027 11.9438 47.2383 11.9053 47.2946L11.8244 47.3096L11.6775 47.4212C11.6433 47.54 11.6312 47.6266 11.641 47.681C11.641 47.681 11.641 47.681 11.641 47.681C10.334 49.3854 9.35605 51.6752 8.70712 54.5503C8.04833 57.3711 8.62419 59.6253 10.4347 61.3128C10.4446 61.3672 10.4814 61.4165 10.5451 61.4609C10.5451 61.4609 10.5451 61.4609 10.5451 61.4609L10.5599 61.5425L10.6408 61.5275L10.6704 61.6906L10.7513 61.6756C11.4527 62.1637 12.0976 62.4937 12.686 62.6655C14.2257 63.1665 17.7275 62.6567 23.1914 61.1359C28.6454 59.5607 32.1443 58.5736 33.6879 58.1744C35.4472 57.7352 37.1624 57.3604 38.8336 57.05C38.9494 57.0356 39.0644 57.022 39.1785 57.0094C40.891 56.8198 42.4206 56.8371 43.7673 57.0613C43.9153 57.09 44.0599 57.1219 44.2012 57.1569C46.3208 57.6822 47.6872 58.9156 48.3005 60.8572C48.9447 62.8738 48.5643 64.7715 47.1594 66.5503C46.5695 67.2923 45.8278 68.0326 44.9343 68.7713C42.2538 70.9873 38.2071 73.1882 32.7941 75.3742C25.567 78.2344 20.3197 80.6425 17.0523 82.5986C14.554 84.1869 12.2129 86.0272 10.0289 88.1193C7.8988 90.2015 6.24204 92.5892 5.05862 95.2826C2.93636 100.174 1.34033 106.739 0.270546 114.976C-0.755193 123.15 1.13578 129.123 5.94346 132.896C8.17078 134.731 13.1202 135.751 20.7917 135.957C28.4533 136.108 36.6636 135.904 45.4225 135.345C45.9727 135.306 46.521 135.267 47.0674 135.226C55.2638 134.619 63.0379 133.844 70.3896 132.9C78.2314 131.894 83.4951 131.113 86.1807 130.558L86.2615 130.543C86.2418 130.434 86.2859 130.369 86.3937 130.349L86.5258 130.156C86.516 130.102 86.538 130.07 86.5919 130.06L86.7388 129.948C86.7416 129.944 86.7443 129.94 86.7471 129.936C86.789 129.879 86.8352 129.846 86.8858 129.836L86.8562 129.673L87.0031 129.562C87.7618 128.521 88.2559 127.558 88.4853 126.672C89.0028 124.609 89.13 122.083 88.8671 119.096C88.8507 118.91 88.8333 118.725 88.815 118.542Z" fill="#7872B9"/>
</svg>
