<svg width="50" height="50" viewBox="0 0 50 50" fill="none" xmlns="http://www.w3.org/2000/svg">
<path fill-rule="evenodd" clip-rule="evenodd" d="M36.0205 5.09373C49.0925 8.93127 52.6138 25.4939 48.1794 36.794C43.7449 48.0941 27.3392 51.2879 14.261 47.4504C1.18272 43.6128 -2.66382 30.5002 1.75188 19.1939C6.16759 7.88751 22.9423 1.2562 36.0205 5.09373Z" fill="#EBF5FF"/>
<path d="M48.9086 41.2688C48.7728 39.8993 48.5329 38.7594 48.1889 37.849C48.1015 37.6686 48.0214 37.5291 47.9486 37.4303C47.904 37.3157 47.8306 37.2173 47.7284 37.135C47.7138 37.1233 47.6987 37.1119 47.6829 37.1008L47.4391 36.8936C47.3494 36.8542 47.2355 36.8335 47.0974 36.8313C47.0868 36.8298 47.0756 36.8286 47.0638 36.8277C46.9814 36.8217 46.8702 36.8318 46.7303 36.8581C46.722 36.8597 46.7137 36.8613 46.7055 36.8629C46.5824 36.8877 46.4732 36.9222 46.3778 36.9665C46.2505 37.015 46.1238 37.0629 45.9977 37.1102C44.1071 37.8194 42.3612 38.3903 40.76 38.8228C39.0737 39.252 37.1717 39.5531 35.0539 39.7261C31.5941 40.4041 29.1166 40.7992 27.6215 40.9114C26.1264 41.0236 24.6349 41.0789 23.1469 41.0773C21.5791 41.0907 20.4 41.0452 19.6099 40.9406C17.9813 40.7687 17.2318 40.1225 17.3615 39.0019C17.5178 37.8763 17.9285 36.6326 18.5935 35.2709C18.6244 35.2124 18.6559 35.154 18.6882 35.0955C19.1719 34.2191 19.8143 33.3498 20.6154 32.4879C21.349 31.816 22.2582 31.1252 23.3431 30.4154C24.1859 29.8917 25.2153 29.3329 26.4312 28.7391C27.1651 28.3764 29.2689 27.5877 32.7428 26.373C34.2372 25.6425 35.3441 25.0551 36.0634 24.6108C37.2331 23.9132 38.2417 23.1616 39.089 22.356C39.2191 22.2366 39.3465 22.1165 39.4712 21.9956C40.344 21.1492 41.0831 20.2632 41.6886 19.3379C42.6201 17.9261 43.2341 16.4335 43.5305 14.8599C44.2054 11.2477 43.7143 8.58531 42.0574 6.87275C40.4222 5.12798 38.1232 3.52197 35.1604 2.05472C33.2038 1.12927 31.1651 0.514372 29.0444 0.210032C26.9818 -0.0771271 24.8481 -0.06983 22.6431 0.231924C22.5073 0.25217 22.3715 0.273402 22.2357 0.295619C20.1985 0.628872 18.1648 1.18383 16.1346 1.96048C16.0306 2.00461 15.9278 2.04912 15.8261 2.09401C14.302 2.76736 13.0473 3.52596 12.0622 4.3698C11.6579 4.72684 11.2984 5.10356 10.9838 5.49996C10.9571 5.50497 10.9487 5.53467 10.9584 5.58905C10.9551 5.58968 10.9518 5.59051 10.9485 5.59157C10.9257 5.59892 10.9048 5.61668 10.8858 5.64486L10.8458 5.65237L10.7731 5.70818C10.7562 5.76757 10.7502 5.81086 10.7551 5.83805C10.7551 5.83805 10.7551 5.83805 10.7551 5.83805C10.109 6.69025 9.62546 7.83514 9.30464 9.27272C8.97895 10.6831 9.26364 11.8102 10.1587 12.654C10.1636 12.6811 10.1818 12.7058 10.2133 12.728C10.2133 12.728 10.2133 12.728 10.2133 12.728L10.2206 12.7688L10.2606 12.7613L10.2752 12.8429L10.3152 12.8354C10.662 13.0794 10.9809 13.2444 11.2717 13.3303C12.0329 13.5808 13.7642 13.3259 16.4654 12.5655C19.1618 11.7779 20.8915 11.2843 21.6547 11.0848C22.5245 10.8652 23.3724 10.6778 24.1986 10.5226C24.2559 10.5153 24.3127 10.5086 24.3692 10.5022C25.2158 10.4074 25.972 10.4161 26.6377 10.5282C26.7109 10.5426 26.7824 10.5585 26.8523 10.576C27.9002 10.8387 28.5757 11.4554 28.8789 12.4262C29.1974 13.4344 29.0093 14.3833 28.3148 15.2727C28.0231 15.6437 27.6564 16.0139 27.2147 16.3832C25.8895 17.4912 23.8889 18.5917 21.2128 19.6846C17.6399 21.1147 15.0457 22.3188 13.4303 23.2968C12.1953 24.091 11.0378 25.0112 9.95811 26.0572C8.90502 27.0983 8.08595 28.2922 7.50089 29.6388C6.45168 32.0846 5.66264 35.3669 5.13375 39.4858C4.62665 43.5725 5.56151 46.5591 7.93834 48.4456C9.03949 49.3631 11.4864 49.8732 15.279 49.9759C19.0668 50.0514 23.1258 49.9495 27.4561 49.6701C27.7281 49.6507 27.9991 49.6308 28.2693 49.6106C32.3214 49.3073 36.1648 48.9197 39.7993 48.4477C43.6762 47.9444 46.2785 47.5539 47.6062 47.2764L47.6461 47.2689C47.6364 47.2145 47.6582 47.1823 47.7115 47.1723L47.7768 47.0757C47.7719 47.0485 47.7828 47.0324 47.8095 47.0274L47.8821 46.9716C47.8835 46.9696 47.8848 46.9676 47.8862 46.9657C47.9069 46.9371 47.9298 46.9205 47.9548 46.9158L47.9401 46.8342L48.0128 46.7784C48.3879 46.2582 48.6321 45.7766 48.7456 45.3337C49.0014 44.3019 49.0643 43.0392 48.9343 41.5458C48.9262 41.4524 48.9176 41.3601 48.9086 41.2688Z" fill="#7872B9"/>
</svg>
