<svg width="196" height="160" viewBox="0 0 196 160" fill="none" xmlns="http://www.w3.org/2000/svg">
<path d="M113 159.692C158.84 159.692 196 123.944 196 79.8459C196 35.7482 158.84 0 113 0C67.1604 0 30 35.7482 30 79.8459C30 123.944 67.1604 159.692 113 159.692Z" fill="#EBF5FF"/>
<path d="M5.88419 48.7346C2.2857 51.9691 0.648383 56.7966 0.162433 60.8149C-0.279814 64.4719 1.14656 68.2283 4.22772 70.247C6.29551 71.6017 8.9756 72.4621 11.9958 71.3956C19.1261 68.8777 18.1075 63.8418 19.6354 62.3311C24.1729 57.8445 30.5868 55.3382 36.9434 54.7802C42.7009 54.2749 49.6601 55.0429 53.7587 58.806C59.4628 64.0433 58.1726 69.0455 56.8145 70.892C55.2866 73.5778 50.7028 79.1508 44.5912 79.9565C38.4796 80.7622 35.9331 81.9708 35.4238 82.4744C34.5749 82.978 33.3865 84.7909 35.4238 88.0138C37.461 91.2368 42.0447 91.0353 44.0819 90.5318C51.4159 90.1289 56.6447 94.0569 58.3424 96.0712C60.3796 98.0855 63.4354 103.323 59.361 108.157C55.2866 112.992 46.4586 115.879 42.554 116.718C33.9977 119.135 30.161 117.054 29.3121 115.711C26.8675 110.877 23.8796 109.332 22.6912 109.164C21.5028 108.829 18.0056 108.862 13.5237 111.682C9.04187 114.502 7.9214 118.229 7.9214 119.74C7.75163 121.922 9.24559 127.495 16.5795 132.329C23.9135 137.164 38.9889 137.029 45.6098 136.358C57.0182 135.149 67.34 128.468 71.0749 125.279C74.3005 123.097 81.1591 116.315 82.7889 106.646C84.4187 96.9776 79.7331 90.196 77.1866 88.0138C79.0783 86.611 80.7012 85.2873 82.0728 84.0822C86.3094 80.3597 89.2583 75.2294 88.9624 69.5975C88.7843 66.2062 87.9439 62.1387 85.8447 57.7988C81.3629 48.5329 69.3773 42.1879 63.9447 40.1737C47.647 34.1307 30.3307 37.3201 23.7098 39.6701C20.4842 40.5094 12.0996 43.1481 5.88419 48.7346Z" fill="#7872B9"/>
</svg>
