<svg width="50" height="52" viewBox="0 0 50 52" fill="none" xmlns="http://www.w3.org/2000/svg">
<path d="M25 52C38.8071 52 50 40.3594 50 26C50 11.6406 38.8071 0 25 0C11.1929 0 0 11.6406 0 26C0 40.3594 11.1929 52 25 52Z" fill="#EBF5FF"/>
<path d="M5.97515 7.01808C4.94325 7.93528 4.2303 9.1087 3.76161 10.3192C2.42165 13.78 4.07609 18.6802 7.78609 18.5868C8.19587 18.5765 8.62339 18.5029 9.0653 18.3486C12.6705 17.0896 12.1555 14.5717 12.928 13.8163C15.2279 11.5675 18.4646 10.3217 21.669 10.0418C24.582 9.7873 28.1066 10.17 30.1813 12.0538C33.0655 14.6724 32.4131 17.1735 31.7264 18.0968C30.9539 19.4396 28.6363 22.2261 25.5461 22.629C22.456 23.0319 21.1684 23.6362 20.9109 23.888C20.4817 24.1398 19.8808 25.0462 20.9109 26.6577C21.9409 28.2691 24.2585 28.1684 25.2886 27.9166C28.9968 27.7152 31.6406 29.6792 32.499 30.6863C33.529 31.6935 35.0741 34.3121 33.014 36.7294C30.9539 39.1466 26.4903 40.5902 24.5161 41.0098C20.1898 42.2184 18.2499 41.1777 17.8207 40.5062C16.5847 38.089 15.0739 37.3169 14.4731 37.2329C13.8722 37.0651 12.104 37.0819 9.83784 38.4919C7.57173 39.9019 7.0052 41.7652 7.0052 42.5206C6.91937 43.6117 7.67474 46.3982 11.3829 48.8154C15.0911 51.2326 22.7135 51.1654 26.0611 50.8297C31.8294 50.2254 37.0483 46.885 38.9368 45.2903C40.5677 44.1992 44.0355 40.8084 44.8596 35.974C45.6836 31.1396 43.3145 27.7488 42.0269 26.6577C46.0071 23.7388 48.785 19.0764 47.4625 14.3211C47.2162 13.4354 46.8722 12.506 46.4046 11.5502C44.1385 6.91721 38.0784 3.74473 35.3316 2.73762C27.0912 -0.283886 18.3358 1.3108 14.9881 2.48582C13.3572 2.90548 9.11776 4.22478 5.97515 7.01808Z" fill="#7872B9"/>
</svg>
