<svg width="202" height="160" viewBox="0 0 202 160" fill="none" xmlns="http://www.w3.org/2000/svg">
<path fill-rule="evenodd" clip-rule="evenodd" d="M152.233 3.88134C198.769 17.4996 211.305 76.2756 195.519 116.376C179.732 156.477 121.328 167.811 74.769 154.193C28.2105 140.574 14.5168 94.0414 30.2367 53.9185C45.9566 13.7956 105.675 -9.73693 152.233 3.88134Z" fill="#EBF5FF"/>
<path d="M55.3349 134.387C53.724 134.28 52.2205 129.986 50.8244 121.506C45.7231 121.882 40.4608 121.989 35.0374 121.828C29.6677 121.614 24.8618 121.131 20.6197 120.379C20.2975 120.325 19.9485 120.272 19.5726 120.218C19.1967 120.111 18.8746 120.03 18.6061 119.977C17.0489 119.923 15.599 119.681 14.2566 119.252C12.6994 118.823 11.357 117.803 10.2293 116.193C8.72579 114.207 7.38336 111.496 6.20202 108.062C4.8059 104.251 3.57086 99.2326 2.49692 93.0067C1.42298 86.7271 0.75176 82.3797 0.483275 79.9645C0.214789 77.5493 0.0536972 73.0946 0 66.6003C0 60.1061 0.402729 54.7121 1.20819 50.4184C1.53037 48.2179 2.09419 45.9368 2.89965 43.5753C3.7588 41.1601 5.18178 39.2547 7.16857 37.8593C8.24252 37.1079 10.1219 36.3565 12.8068 35.6051C15.5453 34.8537 17.5053 34.4511 18.6866 34.3975C19.9217 34.3438 21.64 34.6926 23.8415 35.4441C26.0431 36.1418 27.2245 37.5641 27.3856 39.7109C27.4393 40.8917 27.3319 42.1261 27.0634 43.4143C26.7949 44.6487 26.5533 45.8295 26.3385 46.9566C24.4591 56.2417 23.5462 64.3998 23.5999 71.4308C23.7073 78.4617 24.8081 88.2836 26.9023 100.896C32.7553 100.95 39.4674 100.628 47.0387 99.9303C46.0185 82.4871 45.5084 73.1751 45.5084 71.9943C45.401 68.8814 47.4952 67.2175 51.7909 67.0029C56.1404 66.7882 59.1206 67.2444 60.7315 68.3715C62.235 69.2839 64.1681 79.1594 66.5308 97.9981C67.8195 97.5687 69.1083 97.0857 70.397 96.549C71.3098 96.227 72.2764 95.8781 73.2966 95.5024C74.3706 95.073 75.4177 94.8047 76.4379 94.6973C80.2504 94.268 82.103 96.388 81.9956 101.057C81.9419 105.673 81.4318 109.028 80.4652 111.121C79.5524 112.999 78.1294 114.475 76.1963 115.549C74.2632 116.622 72.3838 117.481 70.5581 118.125C70.2896 118.232 70.048 118.34 69.8332 118.447C69.6184 118.501 69.3767 118.554 69.1083 118.608C69.1083 122.848 68.8935 125.505 68.4639 126.578C68.0343 127.598 67.5779 128.591 67.0946 129.557C66.8261 130.147 65.8864 130.818 64.2755 131.57C62.7183 132.321 61.6712 132.858 61.1342 133.18C58.879 134.038 56.9459 134.441 55.3349 134.387Z" fill="#7872B9"/>
</svg>
