<svg width="50" height="50" viewBox="0 0 50 50" fill="none" xmlns="http://www.w3.org/2000/svg">
<path fill-rule="evenodd" clip-rule="evenodd" d="M36.0205 3.11804C49.0925 7.04085 52.6138 23.9716 48.1794 35.5228C43.7449 47.074 27.3392 50.3387 14.261 46.4159C1.18272 42.4931 -2.66382 29.0891 1.75188 17.5315C6.16759 5.9739 22.9423 -0.804772 36.0205 3.11804Z" fill="#EBF5FF"/>
<path d="M32.3423 49.9976C31.5172 49.944 30.7471 47.7971 30.032 43.5571C27.4192 43.7449 24.7238 43.7986 21.946 43.7181C19.1956 43.6107 16.7341 43.3692 14.5613 42.9935C14.3963 42.9667 14.2175 42.9398 14.025 42.913C13.8325 42.8593 13.6675 42.8191 13.5299 42.7922C12.7323 42.7654 11.9897 42.6446 11.3022 42.43C10.5046 42.2153 9.81698 41.7054 9.2394 40.9003C8.46931 39.9074 7.78172 38.5522 7.17665 36.8347C6.46156 34.9294 5.82898 32.4202 5.27891 29.3073C4.72884 26.1675 4.38505 23.9938 4.24753 22.7862C4.11001 21.5786 4.0275 19.3512 4 16.1041C4 12.857 4.20628 10.16 4.61883 8.01315C4.78385 6.91288 5.07263 5.77236 5.48519 4.59159C5.92524 3.38398 6.65408 2.43132 7.67171 1.73359C8.22178 1.35789 9.1844 0.982187 10.5596 0.606487C11.9622 0.230787 12.9661 0.0295193 13.5712 0.00268357C14.2038 -0.0241522 15.0839 0.15028 16.2115 0.52598C17.3392 0.874845 17.9442 1.58599 18.0267 2.65942C18.0543 3.24981 17.9992 3.86703 17.8617 4.51109C17.7242 5.12831 17.6004 5.71869 17.4904 6.28224C16.5278 10.9248 16.0603 15.0039 16.0878 18.5193C16.1428 22.0348 16.7066 26.9457 17.7792 33.2521C20.7771 33.279 24.215 33.118 28.093 32.7691C27.5704 24.0475 27.3092 19.3915 27.3092 18.8011C27.2542 17.2446 28.3268 16.4127 30.5271 16.3054C32.7548 16.198 34.2813 16.4261 35.1064 16.9897C35.8765 17.4459 36.8666 22.3837 38.0768 31.803C38.7368 31.5883 39.3969 31.3468 40.057 31.0784C40.5246 30.9174 41.0196 30.743 41.5422 30.5552C42.0923 30.3405 42.6286 30.2063 43.1511 30.1526C45.1039 29.9379 46.0527 30.9979 45.9977 33.3326C45.9702 35.6405 45.709 37.3178 45.2139 38.3643C44.7463 39.3036 44.0175 40.0416 43.0274 40.5783C42.0372 41.115 41.0746 41.5444 40.1395 41.8664C40.002 41.9201 39.8782 41.9738 39.7682 42.0274C39.6582 42.0543 39.5344 42.0811 39.3969 42.1079C39.3969 44.228 39.2869 45.5563 39.0669 46.093C38.8468 46.6029 38.6131 47.0994 38.3655 47.5824C38.228 47.8776 37.7467 48.2131 36.9216 48.5888C36.124 48.9645 35.5877 49.2328 35.3127 49.3938C34.1575 49.8232 33.1674 50.0245 32.3423 49.9976Z" fill="#7872B9"/>
</svg>
