<svg width="54" height="52" viewBox="0 0 54 52" fill="none" xmlns="http://www.w3.org/2000/svg">
<path fill-rule="evenodd" clip-rule="evenodd" d="M29.0769 0C43.8471 0 54 16.5745 54 30.0155C54 43.4565 38.6506 52 23.8888 52C9.12688 52 0 39.2142 0 25.7648C0 12.3153 14.3068 0 29.0769 0Z" fill="#EBF5FF"/>
<path fill-rule="evenodd" clip-rule="evenodd" d="M27.7779 11.5146C34.8017 11.5146 40.6315 15.8964 44.3682 21.7247V37.5314C44.3682 47.6573 43.7782 46.3933 33.5304 46.8217C27.9745 47.0534 20.5995 47.2921 15.2684 46.8217C11.7002 46.4846 9.46663 45.8737 8.44114 44.6308C7.1347 43.0297 7.7809 28.2131 7.7809 25.2147C7.7809 22.6498 8.54285 20.0864 10.4485 18.3697C12.3116 16.6914 14.407 15.2794 16.6757 14.1803C20.1408 12.5015 23.9281 11.5922 27.7779 11.5146Z" fill="#B0C8EB"/>
<path fill-rule="evenodd" clip-rule="evenodd" d="M14.3402 8.71313C20.4018 8.62184 35.7489 8.07413 42.9835 9.14149C45.175 9.4645 45.6737 11.1498 45.6737 12.7017V35.2706C45.6737 45.3965 45.0837 44.1325 34.8358 44.5609C29.28 44.7926 21.9049 45.0313 16.5387 44.5609C12.9776 44.2238 10.744 43.6129 9.71849 42.37C8.41205 40.7689 9.05824 25.9523 9.05824 22.9539C9.05824 20.5383 8.69301 13.3266 9.22682 11.4377C9.84492 9.2117 12.0785 8.74122 14.3402 8.71313Z" fill="white"/>
<path fill-rule="evenodd" clip-rule="evenodd" d="M14.3417 8.71313C20.4033 8.62184 35.7504 8.07413 42.985 9.14149C45.1765 9.4645 45.6752 11.1498 45.6752 12.7017V19.6465C33.4443 19.2346 21.218 19.2346 8.99651 19.6465C8.91925 16.5919 8.85603 12.7017 9.2283 11.3885C9.8464 9.2117 12.08 8.74122 14.3417 8.71313Z" fill="#FAA8B7"/>
<path fill-rule="evenodd" clip-rule="evenodd" d="M17.8115 15.2645C18.4394 15.2645 19.0532 15.0783 19.5753 14.7295C20.0974 14.3808 20.5043 13.8851 20.7446 13.3051C20.9849 12.7251 21.0478 12.087 20.9253 11.4713C20.8028 10.8556 20.5004 10.29 20.0564 9.84615C19.6124 9.40226 19.0467 9.09996 18.4309 8.97749C17.815 8.85503 17.1767 8.91787 16.5966 9.1581C16.0164 9.39834 15.5206 9.80516 15.1718 10.3271C14.8229 10.8491 14.6367 11.4627 14.6367 12.0905C14.6386 12.9317 14.9737 13.7379 15.5686 14.3328C16.1636 14.9276 16.9701 15.2626 17.8115 15.2645Z" fill="#DB8897"/>
<path fill-rule="evenodd" clip-rule="evenodd" d="M15.6285 6.43777C15.0736 7.47703 15.5652 11.9431 15.6285 12.252C15.7537 12.6311 15.9735 12.9719 16.2673 13.2422C16.5611 13.5126 16.919 13.7035 17.3072 13.7969C17.8064 13.9337 18.3388 13.8774 18.7983 13.6392C19.2578 13.4011 19.6107 12.9985 19.7866 12.5119C20.1799 10.9881 20.489 7.15401 19.4354 5.92515C18.1922 4.45753 16.4994 4.81567 15.6285 6.43777Z" fill="#6B66A6"/>
<path fill-rule="evenodd" clip-rule="evenodd" d="M36.7842 15.2645C37.4121 15.2645 38.0259 15.0783 38.548 14.7295C39.0701 14.3808 39.477 13.8851 39.7173 13.3051C39.9576 12.7251 40.0205 12.087 39.898 11.4713C39.7755 10.8556 39.4731 10.29 39.0291 9.84615C38.5851 9.40226 38.0194 9.09996 37.4035 8.97749C36.7877 8.85503 36.1494 8.91787 35.5692 9.1581C34.9891 9.39834 34.4933 9.80516 34.1444 10.3271C33.7956 10.8491 33.6094 11.4627 33.6094 12.0905C33.6112 12.9317 33.9463 13.7379 34.5413 14.3328C35.1363 14.9276 35.9427 15.2626 36.7842 15.2645Z" fill="#DB8897"/>
<path fill-rule="evenodd" clip-rule="evenodd" d="M34.7183 6.43777C34.1634 7.47703 34.6551 11.9431 34.7183 12.252C34.8458 12.6298 35.0665 12.9693 35.3599 13.2393C35.6533 13.5093 36.0099 13.7011 36.397 13.7969C36.8962 13.9354 37.4294 13.8798 37.8893 13.6415C38.3492 13.4031 38.7019 12.9995 38.8764 12.5119C39.2698 10.9881 39.5788 7.15401 38.5323 5.92515C37.282 4.45753 35.5963 4.81567 34.7183 6.43777Z" fill="#6B66A6"/>
<path d="M18.1369 23.3892H13.4309C13.2447 23.3892 13.0938 23.5401 13.0938 23.7262V28.431C13.0938 28.6172 13.2447 28.7681 13.4309 28.7681H18.1369C18.3231 28.7681 18.474 28.6172 18.474 28.431V23.7262C18.474 23.5401 18.3231 23.3892 18.1369 23.3892Z" fill="#CDE1FF"/>
<path d="M25.8478 23.3892H21.1418C20.9556 23.3892 20.8047 23.5401 20.8047 23.7262V28.431C20.8047 28.6172 20.9556 28.7681 21.1418 28.7681H25.8478C26.034 28.7681 26.185 28.6172 26.185 28.431V23.7262C26.185 23.5401 26.034 23.3892 25.8478 23.3892Z" fill="#CDE1FF"/>
<path d="M33.0197 23.3892H28.3137C28.1275 23.3892 27.9766 23.5401 27.9766 23.7262V28.431C27.9766 28.6172 28.1275 28.7681 28.3137 28.7681H33.0197C33.2059 28.7681 33.3568 28.6172 33.3568 28.431V23.7262C33.3568 23.5401 33.2059 23.3892 33.0197 23.3892Z" fill="#CDE1FF"/>
<path d="M40.7306 23.3892H36.0246C35.8384 23.3892 35.6875 23.5401 35.6875 23.7262V28.431C35.6875 28.6172 35.8384 28.7681 36.0246 28.7681H40.7306C40.9168 28.7681 41.0678 28.6172 41.0678 28.431V23.7262C41.0678 23.5401 40.9168 23.3892 40.7306 23.3892Z" fill="#CDE1FF"/>
<path d="M18.1369 30.5586H13.4309C13.2447 30.5586 13.0938 30.7095 13.0938 30.8956V35.6004C13.0938 35.7866 13.2447 35.9375 13.4309 35.9375H18.1369C18.3231 35.9375 18.474 35.7866 18.474 35.6004V30.8956C18.474 30.7095 18.3231 30.5586 18.1369 30.5586Z" fill="#CDE1FF"/>
<path d="M25.8478 30.5586H21.1418C20.9556 30.5586 20.8047 30.7095 20.8047 30.8956V35.6004C20.8047 35.7866 20.9556 35.9375 21.1418 35.9375H25.8478C26.034 35.9375 26.185 35.7866 26.185 35.6004V30.8956C26.185 30.7095 26.034 30.5586 25.8478 30.5586Z" fill="#CDE1FF"/>
<path d="M33.0197 30.5586H28.3137C28.1275 30.5586 27.9766 30.7095 27.9766 30.8956V35.6004C27.9766 35.7866 28.1275 35.9375 28.3137 35.9375H33.0197C33.2059 35.9375 33.3568 35.7866 33.3568 35.6004V30.8956C33.3568 30.7095 33.2059 30.5586 33.0197 30.5586Z" fill="#CDE1FF"/>
<path d="M40.7306 30.5586H36.0246C35.8384 30.5586 35.6875 30.7095 35.6875 30.8956V35.6004C35.6875 35.7866 35.8384 35.9375 36.0246 35.9375H40.7306C40.9168 35.9375 41.0678 35.7866 41.0678 35.6004V30.8956C41.0678 30.7095 40.9168 30.5586 40.7306 30.5586Z" fill="#FAA8B7"/>
</svg>
