<svg width="578" height="445" viewBox="0 0 578 445" fill="none" xmlns="http://www.w3.org/2000/svg">
<g clip-path="url(#clip0_4051_2413)">
<path d="M564.303 35.5723H315.565C310.897 35.5723 307.113 39.3404 307.113 43.9887V390.574C307.113 395.222 310.897 398.99 315.565 398.99H564.303C568.97 398.99 572.754 395.222 572.754 390.574V43.9887C572.754 39.3404 568.97 35.5723 564.303 35.5723Z" fill="#FFCE70"/>
<path d="M546.188 55.0381H333.597C329.6 55.0381 326.359 58.2652 326.359 62.246V370.676C326.359 374.657 329.6 377.884 333.597 377.884H546.188C550.186 377.884 553.426 374.657 553.426 370.676V62.246C553.426 58.2652 550.186 55.0381 546.188 55.0381Z" fill="#F0E5F6"/>
<path d="M415.815 389.106C457.848 389.106 491.923 342.033 491.923 283.966C491.923 225.898 457.848 178.825 415.815 178.825C373.782 178.825 339.707 225.898 339.707 283.966C339.707 342.033 373.782 389.106 415.815 389.106Z" fill="white"/>
<path fill-rule="evenodd" clip-rule="evenodd" d="M475.668 174.164C487.264 176.334 498.085 181.499 507.048 189.14C521.35 202.564 530.496 226.259 512.812 228.46C502.974 229.669 477.662 230.748 468.647 226.259C454.648 219.224 456.121 182.191 472.331 176.624C472.721 176.451 475.192 173.818 475.668 174.164Z" fill="white"/>
<path fill-rule="evenodd" clip-rule="evenodd" d="M296.408 67.6412C302.953 66.778 301.002 62.8071 318.643 62.8071C334.766 62.8071 364.238 84.6036 369.309 101.868C371.129 108.083 374.813 112.356 377.717 123.19C385.519 152.539 399.041 161.301 400.038 196.564C400.471 211.67 383.828 260.961 375.723 270.715C359.514 290.31 352.362 294.454 326.271 302.568C298.619 311.2 243.922 312.107 214.059 310.164C208.94 309.48 204.165 307.213 200.409 303.681C196.653 300.15 194.105 295.533 193.125 290.483C191.218 274.125 173.665 276.714 178.996 242.833C181.553 226.647 188.791 240.632 181.336 208.606C173.665 175.674 232.089 125.218 239.631 99.8395C250.9 62.4618 274.867 70.4898 296.408 67.6412Z" fill="#4B4680"/>
<path fill-rule="evenodd" clip-rule="evenodd" d="M266.892 117.363C265.939 116.759 267.543 120.341 269.493 123.622C276.384 135.232 265.939 156.554 287.436 174.94C299.233 168.115 310.466 160.365 321.026 151.763C331.168 143.13 339.75 133.031 349.025 123.967C349.116 123.788 349.188 123.6 349.242 123.406C351.539 118.226 356.176 108.86 349.242 104.803C339.533 98.9764 340.877 112.659 341.007 115.421C341.007 116.188 340.701 116.923 340.156 117.466C339.612 118.008 338.873 118.313 338.103 118.313C337.333 118.313 336.594 118.008 336.049 117.466C335.505 116.923 335.199 116.188 335.199 115.421C328.568 90.6031 308.327 104.156 294.068 92.3296C290.037 102.3 268.193 118.226 266.892 117.363Z" fill="#FCD2D3"/>
<path fill-rule="evenodd" clip-rule="evenodd" d="M274.956 250.041C264.554 261.738 261.954 272.442 243.317 289.879C223.64 308.481 217.008 342.536 213.324 371.238C204.396 443.576 329.913 454.41 369.744 435.98C398.35 423.031 423.271 358.98 443.425 352.635C499.509 335.112 410.962 284.743 387.081 283.577C359.646 282.283 320.421 255.695 276.69 251.897L274.956 250.041Z" fill="#EBF5FF"/>
<path fill-rule="evenodd" clip-rule="evenodd" d="M256.015 252.199C256.795 265.536 266.98 312.193 283.97 312.193C329.609 312.193 295.542 343.097 348.376 341.284C357.868 341.025 374.641 332.393 373.687 322.552C372.604 311.028 412.262 321.473 417.766 312.668C435.103 285.088 402.293 276.499 455.343 242.488C482.518 225.223 459.027 207.268 478.921 184.522C494.914 166.179 473.46 171.142 485.552 141.361C498.121 110.63 473.373 114.169 459.981 95.092C451.702 83.2658 417.896 77.8274 405.847 82.9636C388.814 90.56 376.591 102.429 362.505 112.529C347.422 123.233 335.98 139.203 321.244 151.374C278.032 187.932 251.681 176.365 256.015 252.199Z" fill="#7872B8"/>
<path fill-rule="evenodd" clip-rule="evenodd" d="M513.204 227.208C504.535 223.755 488.152 218.36 477.88 224.446C471.292 246.717 435.969 294.842 415.989 301.662C404.59 305.546 395.315 307.229 384.002 302.611C378.671 300.41 367.966 305.158 360.988 306.107C356.654 306.711 342.438 306.107 342.438 307.316C342.048 316.811 353.533 314.394 361.205 315.948C368.876 317.502 372.083 321.084 364.152 326.091C360.078 328.68 353.62 330.407 348.809 332.781C345.948 334.291 334.896 337.097 328.005 339.557C319.727 342.449 321.72 345.772 328.568 346.592C339.187 347.887 357.737 336.752 358.561 343.485C359.384 350.218 322.371 353.844 335.59 361.742C339.924 364.245 372.387 349.7 369.526 351.729C364.932 355.009 343.218 361.483 346.122 369.77C350.803 374.086 373.124 357.34 377.891 356.822C384.392 356.131 367.836 368.907 366.232 372.317C364.629 375.726 364.629 379.136 376.764 372.575C393.494 363.468 395.575 347.758 415.252 340.766C434.194 333.917 451.389 322.997 465.615 308.783C488.412 284.915 501.111 253.968 513.204 227.208Z" fill="#FCD2D3"/>
<path fill-rule="evenodd" clip-rule="evenodd" d="M262.04 282.326C262.344 316.251 269.192 350.65 297.624 349.269C303.388 348.967 311.883 357.038 318.124 360.275C321.982 362.26 335.461 366.62 335.201 367.612C332.384 376.633 322.198 370.547 314.657 369.382C307.115 368.217 302.651 370.634 308.459 378.014C311.45 381.813 317.127 385.438 320.638 389.452C322.848 391.826 332.297 398.084 337.975 402.789C344.779 408.27 341.789 410.731 335.071 409.22C324.626 406.889 310.93 390.186 307.852 396.272C304.775 402.357 338.451 418.154 323.369 421.176C318.601 422.125 292.726 397.523 294.763 400.415C297.97 404.99 316.434 418.327 310.713 425.19C304.862 427.693 289.475 404.472 285.141 402.444C279.247 399.638 290.559 417.162 290.949 420.917C291.339 424.672 290.126 427.909 280.894 417.636C268.195 403.523 272.572 384.489 257.576 370.159C221.559 335.371 206.606 246.459 258.443 208.52C255.372 222.867 254.554 237.602 256.016 252.199C256.976 262.421 258.995 272.517 262.04 282.326Z" fill="#FCD2D3"/>
<path fill-rule="evenodd" clip-rule="evenodd" d="M513.421 235.15C511.688 275.161 497.341 318.149 461.411 340.205C461.411 340.205 458.031 332.306 455.387 326.134C459.111 323.15 462.643 319.936 465.962 316.509C488.76 292.641 501.416 261.695 513.638 234.935L513.421 235.15Z" fill="#FCD2D3"/>
<path fill-rule="evenodd" clip-rule="evenodd" d="M374.596 17.013C374.007 20.7185 371.986 24.0478 368.965 26.2898C365.945 28.5317 362.163 29.5086 358.429 29.0118C354.56 28.4135 351.064 26.3729 348.65 23.3034C346.236 20.2338 345.083 16.3651 345.427 12.4811C346.147 8.59322 348.361 5.13807 351.598 2.84933C354.835 0.560599 358.84 -0.38144 362.763 0.223266C364.671 0.493478 366.501 1.15276 368.141 2.15987C369.78 3.16697 371.194 4.50022 372.292 6.07619C373.39 7.65216 374.15 9.43692 374.524 11.3188C374.898 13.2007 374.878 15.1392 374.466 17.013H374.596ZM409.789 11.7042C409.965 10.9634 410.294 10.2673 410.755 9.66009C411.216 9.05289 411.799 8.54794 412.466 8.17741C413.134 7.80687 413.872 7.57887 414.633 7.50793C415.394 7.43699 416.161 7.52466 416.886 7.76537C417.612 8.00607 418.278 8.39452 418.844 8.90598C419.411 9.41745 419.863 10.0407 420.174 10.7361C420.485 11.4314 420.647 12.1836 420.65 12.9448C420.653 13.706 420.497 14.4594 420.191 15.1571C419.69 16.5202 418.681 17.639 417.374 18.2818C416.067 18.9246 414.561 19.0421 413.17 18.61C411.823 18.1117 410.721 17.1165 410.092 15.8307C409.462 14.545 409.354 13.0673 409.789 11.7042ZM493.048 51.8442C493.983 50.3311 495.21 49.0179 496.658 47.9805C498.105 46.9431 499.746 46.2022 501.483 45.8007C503.221 45.3992 505.021 45.3452 506.78 45.6417C508.539 45.9382 510.221 46.5794 511.729 47.528C513.238 48.4129 514.552 49.5924 515.593 50.9956C516.633 52.3989 517.378 53.997 517.783 55.694C518.188 57.3911 518.244 59.1521 517.948 60.8713C517.653 62.5905 517.011 64.2326 516.063 65.6989C514.2 68.5504 511.314 70.5854 507.995 71.3877C504.676 72.19 501.174 71.699 498.206 70.0151C495.167 68.2263 492.935 65.341 491.975 61.9577C491.015 58.5744 491.399 54.9528 493.048 51.8442ZM564.129 210.203C565.547 209.777 567.039 209.652 568.509 209.835C569.979 210.018 571.394 210.505 572.663 211.266C573.933 212.026 575.029 213.042 575.88 214.249C576.732 215.456 577.32 216.827 577.608 218.274C578.033 219.644 578.146 221.09 577.94 222.509C577.735 223.927 577.215 225.283 576.418 226.476C575.622 227.67 574.569 228.673 573.335 229.412C572.102 230.15 570.719 230.607 569.286 230.748C566.687 231.262 563.987 230.803 561.707 229.456C559.428 228.11 557.727 225.972 556.934 223.453C556.299 220.751 556.681 217.91 558.006 215.468C559.332 213.027 561.51 211.154 564.129 210.203ZM560.575 160.481C559.957 160.64 559.314 160.676 558.683 160.587C558.051 160.498 557.443 160.287 556.894 159.964C556.345 159.641 555.864 159.214 555.481 158.707C555.097 158.199 554.818 157.622 554.659 157.007C554.499 156.392 554.463 155.751 554.552 155.122C554.641 154.494 554.854 153.888 555.178 153.341C555.502 152.794 555.931 152.316 556.44 151.934C556.95 151.552 557.53 151.274 558.148 151.115C559.425 150.743 560.795 150.86 561.99 151.443C563.185 152.026 564.118 153.033 564.605 154.266C564.731 155.57 564.397 156.877 563.662 157.963C562.927 159.05 561.835 159.848 560.575 160.222V160.481ZM485.074 60.4764C491.531 48.9523 486.807 38.8958 477.315 31.0836C477.315 31.0836 476.102 30.2204 475.842 30.0477C465.743 23.1851 450.487 21.6744 443.509 33.5869C437.138 44.5499 443.509 56.9372 452.957 63.4977L454.344 64.3609C465.396 70.5761 476.839 71.5257 485.074 60.4764ZM387.078 33.1553C387.409 32.2153 387.546 31.2187 387.481 30.2248C387.417 29.2309 387.153 28.26 386.704 27.37C386.255 26.48 385.631 25.6891 384.869 25.0443C384.106 24.3994 383.222 23.9139 382.267 23.6167C381.273 23.4641 380.258 23.5101 379.282 23.7518C378.306 23.9935 377.387 24.4262 376.581 25.0247C375.774 25.6232 375.095 26.3755 374.583 27.2379C374.071 28.1002 373.736 29.0554 373.599 30.0477C373.11 31.9577 373.36 33.981 374.299 35.7159C375.239 37.4509 376.799 38.7708 378.67 39.4137C380.604 39.6093 382.541 39.0747 384.098 37.9157C385.655 36.7567 386.719 35.0579 387.078 33.1553Z" fill="#7872B8"/>
</g>
<path fill-rule="evenodd" clip-rule="evenodd" d="M65.5001 172.542C64.744 172.37 64.0321 172.042 63.4097 171.58C62.7873 171.118 62.268 170.531 61.8849 169.856C61.5018 169.182 61.2632 168.436 61.1845 167.664C61.1058 166.893 61.1885 166.114 61.4275 165.376C61.6665 164.638 62.0565 163.959 62.5727 163.38C63.0889 162.802 63.7199 162.337 64.4255 162.016C65.1312 161.694 65.896 161.523 66.6713 161.514C67.4466 161.505 68.2153 161.657 68.9286 161.961C70.3214 162.458 71.4696 163.472 72.1355 164.792C72.8014 166.112 72.9339 167.638 72.5056 169.054C72.0095 170.424 71.0051 171.55 69.7008 172.2C68.3965 172.849 66.8923 172.972 65.5001 172.542ZM110.888 101.509C99.0943 95.0561 88.8908 99.934 81.0141 109.629C81.0141 109.629 80.1451 110.868 79.9715 111.133C73.0672 121.435 75.3092 131.173 87.5028 138.15C98.724 144.52 111.288 137.951 117.89 128.311L118.757 126.896C124.994 115.632 122.213 109.768 110.888 101.509ZM87.5437 195.398C86.5834 195.07 85.5671 194.94 84.5552 195.013C83.5434 195.087 82.5567 195.364 81.654 195.826C80.7513 196.289 79.9509 196.929 79.3006 197.708C78.6502 198.487 78.1632 199.388 77.8686 200.359C77.7217 201.369 77.7771 202.398 78.0316 203.386C78.2862 204.374 78.7348 205.302 79.3513 206.115C79.9678 206.929 80.7399 207.611 81.6226 208.123C82.5053 208.635 83.4811 208.966 84.4931 209.097C86.4428 209.577 88.5016 209.306 90.2608 208.339C92.0201 207.371 93.3512 205.777 93.9902 203.874C94.1729 201.91 93.6119 199.949 92.4181 198.38C91.2243 196.81 89.4847 195.746 87.5437 195.398Z" fill="#EBF5FF"/>
<path fill-rule="evenodd" clip-rule="evenodd" d="M266.378 14.2887C265.932 12.8535 265.792 11.3411 265.966 9.84849C266.14 8.35591 266.624 6.91623 267.387 5.622C268.151 4.32776 269.177 3.20758 270.399 2.33348C271.621 1.45937 273.013 0.85068 274.484 0.546492C275.875 0.104069 277.348 -0.0234123 278.795 0.173248C280.241 0.369908 281.626 0.885793 282.849 1.68358C284.072 2.48136 285.102 3.54104 285.865 4.78597C286.628 6.0309 287.105 7.42994 287.261 8.88172C287.807 11.5146 287.362 14.2565 286.01 16.5807C284.658 18.905 282.495 20.6478 279.936 21.4741C277.188 22.1412 274.292 21.7785 271.793 20.4544C269.295 19.1304 267.368 16.9369 266.378 14.2887ZM215.761 18.3174C215.928 18.9425 215.97 19.5943 215.885 20.2357C215.8 20.8771 215.59 21.4955 215.266 22.0555C214.942 22.6155 214.511 23.1063 213.997 23.4997C213.483 23.8931 212.897 24.1814 212.272 24.3483C211.647 24.5152 210.995 24.5574 210.354 24.4724C209.713 24.3874 209.094 24.1768 208.534 23.8529C207.974 23.5289 207.483 23.0978 207.09 22.5841C206.697 22.0705 206.408 21.4844 206.241 20.8593C205.851 19.567 205.959 18.1755 206.542 16.9583C207.126 15.7412 208.144 14.7864 209.396 14.2815C210.723 14.1435 212.057 14.4708 213.17 15.2073C214.283 15.9438 215.369 17.0417 215.761 18.3174Z" fill="#EBF5FF"/>
<path fill-rule="evenodd" clip-rule="evenodd" d="M124.526 43.8811C122.948 42.9956 121.561 41.8056 120.446 40.3803C119.331 38.9549 118.51 37.3226 118.031 35.5777C117.551 33.8328 117.423 32.0102 117.653 30.2154C117.883 28.4207 118.467 26.6896 119.371 25.1223C120.21 23.5562 121.357 22.1759 122.743 21.0642C124.129 19.9524 125.725 19.1322 127.436 18.6527C129.147 18.1733 130.937 18.0444 132.699 18.2738C134.461 18.5033 136.158 19.0864 137.689 19.9881C140.667 21.7596 142.856 24.6021 143.808 27.934C144.76 31.2658 144.403 34.8353 142.81 37.9122C141.114 41.066 138.268 43.4455 134.863 44.5568C131.459 45.6682 127.757 45.4262 124.526 43.8811Z" fill="#EBF5FF"/>
<path fill-rule="evenodd" clip-rule="evenodd" d="M7.37609 148.996C5.84235 148.135 4.49463 146.979 3.41104 145.593C2.32744 144.208 1.52953 142.621 1.06355 140.926C0.137995 137.557 1.20756 134.015 2.6133 130.817C2.86953 130.235 3.12365 129.719 3.41104 129.221C4.2266 127.699 5.34129 126.358 6.6882 125.277C8.03512 124.197 9.58649 123.399 11.2492 122.933C12.9119 122.467 14.6517 122.342 16.3642 122.565C18.0766 122.788 19.7264 123.355 21.2145 124.231C24.109 125.953 26.2364 128.716 27.1616 131.954C28.0868 135.192 26.6951 140.204 25.1469 143.195C23.4978 146.26 20.732 148.572 17.4232 149.652C14.1144 150.733 10.5166 150.497 7.37609 148.996Z" fill="#EBF5FF"/>
<defs>
<clipPath id="clip0_4051_2413">
<rect width="400" height="444" fill="white" transform="translate(178 0.0507812)"/>
</clipPath>
</defs>
</svg>
