<svg width="1095" height="279" viewBox="0 0 1095 279" fill="none" xmlns="http://www.w3.org/2000/svg">
<g clip-path="url(#clip0_1_317)">
<path fill-rule="evenodd" clip-rule="evenodd" d="M1073.6 110.686C1077.83 110.686 1081.97 111.941 1085.49 114.293C1089.01 116.644 1091.75 119.987 1093.37 123.897C1094.99 127.808 1095.41 132.111 1094.59 136.262C1093.76 140.414 1091.73 144.227 1088.73 147.22C1085.74 150.213 1081.93 152.251 1077.78 153.077C1073.63 153.903 1069.32 153.479 1065.41 151.859C1061.5 150.24 1058.16 147.497 1055.81 143.977C1053.46 140.458 1052.2 136.32 1052.2 132.087C1052.2 126.411 1054.46 120.968 1058.47 116.954C1062.48 112.941 1067.93 110.686 1073.6 110.686Z" fill="#7872B9"/>
<path fill-rule="evenodd" clip-rule="evenodd" d="M1053.13 160.37H1094.12C1092.88 178.337 1087.94 195.853 1079.6 211.817C1073.29 224.94 1063.74 236.245 1051.87 244.674C1045.82 248.791 1038.74 251.132 1031.43 251.43C1026.44 251.509 1021.51 250.248 1017.17 247.779C1004.08 239.722 996.191 221.762 996.191 207.075C996.191 206.614 996.191 206.11 996.191 205.607V185.338C995.981 176.274 996.946 166.833 992.289 158.692C990.736 155.745 988.432 153.261 985.61 151.492C982.787 149.723 979.548 148.733 976.219 148.621H974.457C965.184 149.88 959.226 158.524 957.674 167.126C957.143 170.046 956.946 173.017 957.086 175.981V244.213H922.807V179.254C923.019 175.214 922.808 171.164 922.178 167.168C920.206 157.853 913.241 148.663 902.962 148.663H901.871C897.882 149.344 894.176 151.164 891.198 153.904C888.22 156.644 886.098 160.187 885.088 164.105C883.536 170.072 882.941 176.248 883.326 182.401V244.842H848.795V117.232H882.99V146.816L887.186 138.172C893.563 124.828 905.857 114.253 921.213 114.253C938.332 114.253 951.422 127.262 957.086 142.578L959.142 148.033L961.156 142.578C966.862 127.262 979.953 114.253 997.03 114.253C1001.97 114.433 1006.83 115.59 1011.32 117.657C1015.82 119.724 1019.86 122.66 1023.21 126.296C1030.87 134.168 1035.2 144.689 1035.29 155.671V194.99C1035.29 198.66 1035.85 202.31 1036.93 205.816C1039.11 212.992 1043.77 220.084 1053.34 220V160.37H1053.13ZM456.579 188.779C451.757 183.688 448.169 177.558 446.089 170.861C443.459 162.935 442.182 154.622 442.313 146.271V117.652H479.613V144.215C479.949 175.897 511.039 176.065 511.668 144.215V117.568H545.989V146.187C545.989 163.518 541.29 177.785 532.521 187.814C514.815 208.082 473.781 206.572 456.579 188.695V188.779ZM760.139 251.724C752.807 252.054 745.483 250.917 738.595 248.381C731.708 245.845 725.396 241.96 720.028 236.953C714.953 231.899 711.094 225.758 708.742 218.993C705.864 211.133 704.442 202.814 704.546 194.444V117.61H741.636V192.388C741.636 202.166 743.44 208.796 747.636 213.034C749.281 214.663 751.255 215.921 753.426 216.725C755.597 217.528 757.914 217.858 760.223 217.692C762.881 217.849 765.538 217.372 767.974 216.299C770.411 215.226 772.558 213.59 774.237 211.523C778.072 205.914 779.878 199.163 779.356 192.388V117.61H816.278V194.486C816.278 211.817 811.327 226.127 801.803 236.072C796.992 241.24 791.004 245.17 784.349 247.528C776.653 250.47 768.46 251.895 760.223 251.724H760.139ZM623.317 245.975C614.444 246.048 605.64 244.41 597.387 241.149C589.803 238.138 582.93 233.579 577.206 227.763C571.407 221.766 566.933 214.618 564.073 206.782C557.638 189.528 557.638 170.532 564.073 153.279C566.926 145.545 571.363 138.493 577.1 132.575C582.837 126.657 589.747 122.003 597.387 118.911C614.075 112.476 632.558 112.476 649.246 118.911C656.886 122.003 663.796 126.657 669.533 132.575C675.27 138.493 679.707 145.545 682.56 153.279C688.995 170.532 688.995 189.528 682.56 206.782C679.687 214.512 675.212 221.548 669.428 227.427C663.71 233.293 656.838 237.908 649.246 240.981C640.997 244.253 632.191 245.892 623.317 245.807V245.975ZM622.394 151.642C618.79 151.59 615.216 152.312 611.916 153.76C608.615 155.208 605.664 157.347 603.261 160.035C598.384 165.841 595.71 173.181 595.71 180.764C595.71 188.348 598.384 195.688 603.261 201.494C605.676 204.166 608.629 206.296 611.927 207.743C615.225 209.19 618.792 209.92 622.394 209.887C626.028 209.98 629.639 209.278 632.973 207.828C636.307 206.378 639.284 204.216 641.694 201.494C646.569 195.712 649.243 188.391 649.243 180.827C649.243 173.263 646.569 165.943 641.694 160.161C639.299 157.458 636.351 155.302 633.05 153.84C629.749 152.377 626.172 151.642 622.561 151.684L622.394 151.642Z" fill="#7872B9"/>
<path d="M512.508 178.205H478.312V244.8H512.508V178.205Z" fill="#7872B9"/>
<path fill-rule="evenodd" clip-rule="evenodd" d="M284.428 -0.222148C293.276 -0.230449 301.927 2.38602 309.288 7.29625C316.649 12.2065 322.388 19.1899 325.78 27.363C329.172 35.536 330.063 44.5316 328.342 53.2116C326.621 61.8917 322.365 69.8661 316.111 76.1263C309.858 82.3865 301.888 86.651 293.211 88.3805C284.534 90.1099 275.539 89.2264 267.364 85.842C259.189 82.4575 252.201 76.7241 247.284 69.3669C242.368 62.0098 239.744 53.3595 239.744 44.5105C239.744 32.6539 244.45 21.2824 252.829 12.8946C261.208 4.50678 272.573 -0.211026 284.428 -0.222148Z" fill="#7872B9"/>
<path fill-rule="evenodd" clip-rule="evenodd" d="M245.995 107.917H323.071C320.385 148.369 303.645 202.585 273.561 238.631C253.883 262.173 230.135 279.713 202.234 278.874C199.996 278.795 197.767 278.557 195.563 278.161C181.144 275.515 168.331 267.338 159.857 255.375C145.466 236.533 143.074 221.511 138.878 203.886C130.487 165.7 91.3829 164.86 80.1383 197.634C78.0018 206.073 77.2089 214.797 77.7887 223.483V278.958H0V219.203C0.419572 152.523 48.041 97.5098 116.222 101.706C157.465 104.266 192.374 132.591 208.192 170.609C214.066 184.709 214.485 201.158 225.268 211.985C227.941 214.761 231.167 216.943 234.738 218.389C238.309 219.835 242.145 220.512 245.995 220.378V107.917Z" fill="#7872B9"/>
<path fill-rule="evenodd" clip-rule="evenodd" d="M108.585 -0.0543016C117.433 -0.0542977 126.082 2.57027 133.438 7.48741C140.794 12.4045 146.527 19.3933 149.911 27.5696C153.295 35.7458 154.178 44.7422 152.449 53.4206C150.72 62.099 146.456 70.0696 140.197 76.3239C133.938 82.5782 125.964 86.8352 117.285 88.5564C108.606 90.2777 99.6121 89.3859 91.4402 85.9938C83.2682 82.6016 76.2858 76.8616 71.3763 69.4999C66.4667 62.1381 63.8506 53.4854 63.8589 44.6363C63.8589 38.7639 65.0161 32.9491 67.2643 27.5243C69.5125 22.0994 72.8077 17.1709 76.9615 13.0204C81.1153 8.86995 86.0462 5.57892 91.4724 3.33547C96.8986 1.09203 102.714 -0.0598156 108.585 -0.0543016Z" fill="#7872B9"/>
</g>
<defs>
<clipPath id="clip0_1_317">
<rect width="1095" height="279" fill="white"/>
</clipPath>
</defs>
</svg>
