<svg width="120" height="135" viewBox="0 0 120 135" fill="none" xmlns="http://www.w3.org/2000/svg">
<path fill-rule="evenodd" clip-rule="evenodd" d="M86.4493 27.6736C117.822 37.0542 126.273 77.5407 115.63 105.163C104.988 132.786 65.6141 140.593 34.2263 131.212C2.83852 121.831 -6.39318 89.7783 4.20452 62.1405C14.8022 34.5028 55.0615 18.2929 86.4493 27.6736Z" fill="#EBF5FF"/>
<path fill-rule="evenodd" clip-rule="evenodd" d="M80.1982 9.38416C78.6376 22.4092 78.1127 35.5376 78.6283 48.6457C78.8302 61.3479 80.4374 73.9886 83.4206 86.3369C83.4206 87.494 83.999 88.7339 84.3295 89.9737C84.6223 91.1717 84.8431 92.3862 84.9905 93.6106C85.0506 94.5883 84.8248 95.5623 84.3406 96.4137C83.8563 97.265 83.1347 97.9569 82.2638 98.4046C80.3253 99.3412 78.2174 99.8754 76.067 99.9751C73.6836 100.074 71.2972 99.8793 68.9612 99.3965C67.2176 99.1704 65.5342 98.6091 64.0037 97.7434C62.1724 96.4625 60.7861 94.6423 60.0377 92.5361C59.1585 90.3318 58.4405 88.0666 57.8894 85.7583C56.6873 80.3169 55.9137 74.7895 55.5759 69.2271C54.9975 62.6973 54.667 55.9195 54.5844 48.9764C54.333 44.7371 54.333 40.4866 54.5844 36.2473C49.2652 36.6444 43.9212 35.941 38.8856 34.181C30.6231 30.1308 37.481 22.6918 41.6123 19.1376C48.8833 12.8557 62.1859 1.69716 62.6817 1.44919C64.3097 0.661081 66.0804 0.211197 67.887 0.126695C69.7009 -0.0422315 71.5265 -0.0422315 73.3403 0.126695C75.3366 0.26125 77.242 1.01212 78.7936 2.27575C79.552 3.27608 80.0727 4.4361 80.316 5.66777C80.5594 6.89945 80.5191 8.17039 80.1982 9.38416Z" fill="#7872B9"/>
</svg>
