<svg width="38" height="16" viewBox="0 0 38 16" fill="none" xmlns="http://www.w3.org/2000/svg">
<path d="M36.0827 6.02725C32.4555 4.37867 28.8283 2.73008 25.2006 1.0807C24.2997 0.671383 23.3857 2.00818 24.2485 2.60251C26.2576 3.98596 28.3324 5.2427 30.4855 6.36343C25.4507 6.46673 20.4201 6.66151 15.3932 6.99829C9.25831 7.40922 7.78437 7.39844 1.38437 8.19844C0.827477 8.32641 0.892117 9.09466 1.47758 9.08829C7.68919 9.02035 9.3469 8.9042 15.5567 8.55675C21.2855 8.2359 27.0248 8.06413 32.7629 8.05164C31.0841 9.55967 29.601 11.281 28.4688 13.243C27.961 14.1225 29.4004 15.0258 29.9914 14.1955C31.7996 11.6552 33.6849 9.45496 36.2366 7.61721C36.8037 7.20987 36.7214 6.3178 36.0827 6.02725Z" fill="#FACD6E" stroke="#FACD6E" stroke-width="2"/>
</svg>
